<svg xmlns="http://www.w3.org/2000/svg" width="430" height="430" fill="none" viewBox="0 0 430 430"><path fill="#4bb3fd" stroke="#4bb3fd" stroke-linejoin="round" stroke-width="7" d="M265.65 292.7c0 11.7-9.5 21.2-21.2 21.2s-21.2-9.5-21.2-21.2c0 11.7-9.5 21.2-21.2 21.2s-21.2-9.5-21.2-21.2c0 11.7-9.5 21.2-21.2 21.2s-21.2-9.5-21.2-21.2c0 11.7-9.5 21.2-21.2 21.2v48.9l85 4.628h85V292.7z"/><path fill="#4bb3fd" d="M287.25 383.8v-34.4c-3 8-10.7 13.7-19.8 13.7-11.7 0-21.2-9.5-21.2-21.2h-.4c0 11.7-9.5 21.2-21.2 21.2s-21.2-9.5-21.2-21.2c0 11.7-9.5 21.2-21.2 21.2s-21.2-9.5-21.2-21.2c0 11.7-9.5 21.2-21.2 21.2s-21.2-9.5-21.2-21.2c0 2.6-.5 5.2-1.4 7.5v34.4"/><g opacity=".5" style="mix-blend-mode:multiply"><path fill="#4bb3fd" d="M287.25 383.8v-34.4c-3 8-10.7 13.7-19.8 13.7-11.7 0-21.2-9.5-21.2-21.2h-.4c0 11.7-9.5 21.2-21.2 21.2s-21.2-9.5-21.2-21.2c0 11.7-9.5 21.2-21.2 21.2s-21.2-9.5-21.2-21.2c0 11.7-9.5 21.2-21.2 21.2s-21.2-9.5-21.2-21.2c0 2.6-.5 5.2-1.4 7.5v34.4"/><path stroke="#4bb3fd" stroke-linejoin="round" stroke-width="7" d="M287.25 383.8v-34.4c-3 8-10.7 13.7-19.8 13.7-11.7 0-21.2-9.5-21.2-21.2h-.4c0 11.7-9.5 21.2-21.2 21.2s-21.2-9.5-21.2-21.2c0 11.7-9.5 21.2-21.2 21.2s-21.2-9.5-21.2-21.2c0 11.7-9.5 21.2-21.2 21.2s-21.2-9.5-21.2-21.2c0 2.6-.5 5.2-1.4 7.5v34.4"/></g><path fill="#4bb3fd" stroke="#4bb3fd" stroke-linejoin="round" stroke-width="7" d="M138.85 266.2c-2.8 0-5.5-.5-7.9-1.5a21.4 21.4 0 0 1-4.266-2.298V313.9H287.25V245c0 2.1-.2 4-.8 5.9-.5 2-1.4 3.9-2.5 5.6-.8 1.1-1.6 2.1-2.5 3.1-3.9 4.1-9.3 6.6-15.4 6.6-9 0-16.7-5.6-19.8-13.5-.8-2.1-1.3-4.4-1.4-6.8v-.1c-.4 11.4-9.8 20.4-21.2 20.4-11.7 0-21.2-9.5-21.2-21.2 0 11.7-9.5 21.2-21.2 21.2s-21.2-9.5-21.2-21.2c0 11.7-9.5 21.2-21.2 21.2Z" opacity=".5"/><path stroke="#b26836" stroke-linecap="round" stroke-linejoin="round" stroke-miterlimit="10" stroke-width="7" d="M127.346 260.348v-27.2"/><path stroke="#ffc738" stroke-linecap="round" stroke-linejoin="round" stroke-miterlimit="10" stroke-width="7" d="M95.85 286.1v12m17-12v12m-17 27.2v12m17-12v12"/><path fill="#ffc738" d="M99.35 362.8a3.5 3.5 0 1 0-7 0zm-7 0v21h7v-21zm24 0a3.5 3.5 0 1 0-7 0zm-7 0v21h7v-21z"/><path fill="#b26836" d="M93.25 157v98.4h37.6v128.5h-67.1a3 3 0 0 1-3-3V157z"/><path fill="#2ca58d" d="M74.34 99.659c.762-3.024 5.058-3.024 5.82 0l14.75 58.609A3 3 0 0 1 92.002 162H62.5a3 3 0 0 1-2.91-3.732z"/><path stroke="#2ca58d" stroke-linecap="round" stroke-linejoin="round" stroke-miterlimit="10" stroke-width="7" d="M77.25 46.1v73"/><path stroke="#3a3347" stroke-linecap="round" stroke-linejoin="round" stroke-miterlimit="10" stroke-width="7" d="M126.55 119.1s10.4-13.4 31.1 0m31.1 0s-10.4-13.4-31.1 0"/><path fill="#b26836" d="M63.75 383.9a3 3 0 0 1-3-3V162h14.8v221.9" opacity=".5" style="mix-blend-mode:multiply"/><path fill="#2ca58d" d="M80.16 99.66c-.762-3.024-5.058-3.024-5.82 0l-14.75 58.608A3 3 0 0 0 62.498 162h11.15l11.1-44.1z" opacity=".5" style="mix-blend-mode:multiply"/><path fill="#3a3347" d="m239.15 206.8-20.5-21.3v-14.35h70.2V383.8h-31.4v-63.2l-10.321-10.321a3 3 0 0 1-.879-2.121V247.5l-6.368-7.354a3 3 0 0 1-.732-1.964z"/><path fill="#b26836" d="M365.05 184.5h-81.2v199.3h78.2a3 3 0 0 0 3-3z"/><path stroke="#3a3347" stroke-linecap="round" stroke-linejoin="round" stroke-miterlimit="10" stroke-width="7" d="M238.75 145.5v-33.2"/><path fill="#f24c00" d="M365.15 184.5h-146.5v-26.357a3 3 0 0 1 .879-2.122l18.342-18.342a3 3 0 0 1 2.122-.879l43.857-.1h52.646a3 3 0 0 1 2.614 1.529z"/><path fill="#f24c00" d="M279.931 184.5h81.3l-26.04-46.271a3 3 0 0 0-2.614-1.529h-52.646z" opacity=".5" style="mix-blend-mode:multiply"/><path fill="#b26836" d="M365.05 184.5h-81.2v179.3h78.2a3 3 0 0 0 3-3z" opacity=".5" style="mix-blend-mode:multiply"/><path fill="#b26836" d="M365.05 265.9v114.9a3 3 0 0 1-3 3h-78.2V265.9"/><path fill="#f24c00" d="M321.949 189.024c1.154-2.007 4.048-2.007 5.202 0l41.614 72.381c1.15 2-.293 4.495-2.6 4.495h-83.23c-2.307 0-3.751-2.495-2.601-4.495z"/><path fill="#ffc738" d="M334.05 322.3a3 3 0 0 1-3 3h-13.1a3 3 0 0 1-3-3v-17.1c0-5.2 4.2-9.4 9.4-9.4h.3c5.2 0 9.4 4.2 9.4 9.4z"/><path fill="#b26836" d="M283.85 265.9v117.9h20V265.9" opacity=".5" style="mix-blend-mode:multiply"/><path fill="#f24c00" d="M327.15 189.025c-1.153-2.007-4.048-2.007-5.201-.001l-41.615 72.381c-1.15 2 .294 4.495 2.601 4.495h14.815l36.8-64z" opacity=".5" style="mix-blend-mode:multiply"/><path stroke="#ffc738" stroke-linecap="square" stroke-linejoin="round" stroke-miterlimit="10" stroke-width="7" d="M127.34 337.3H64.247m63.111-39.084H64.247"/><path stroke="#ffc738" stroke-linejoin="round" stroke-miterlimit="10" stroke-width="7" d="M60.95 198.5h32.6"/><path stroke="#ffc738" stroke-linecap="round" stroke-linejoin="round" stroke-miterlimit="10" stroke-width="7" d="M78.85 286.1v12"/><path fill="#ffc738" d="M82.35 362.8a3.5 3.5 0 1 0-7 0zm-7 0v21h7v-21z"/><path stroke="#ffc738" stroke-linecap="round" stroke-linejoin="round" stroke-miterlimit="10" stroke-width="7" d="M78.85 325.3v12"/></svg>