<svg xmlns="http://www.w3.org/2000/svg" width="430" height="430" fill="none" viewBox="0 0 430 430"><circle cx="215" cy="215" r="167.5" fill="#2ca58d"/><path fill="#2ca58d" d="M298.007 360.518c-15.208 4.542-31.323 6.981-48.007 6.981-92.508 0-167.5-74.992-167.5-167.5 0-62.305 34.018-116.664 84.493-145.518C97.881 75.12 47.5 139.176 47.5 214.999c0 92.508 74.992 167.5 167.5 167.5 30.203 0 58.538-7.993 83.007-21.981" opacity=".5" style="mix-blend-mode:multiply"/><path fill="#ebe6ef" fill-rule="evenodd" d="M219.5 117.75c-53.575 0-97.006 43.431-97.006 97.006 0 21.369 6.898 41.098 18.591 57.12l1.84 2.521a3 3 0 0 1 .512 2.389l-5.771 27.299 28.317-7.224a3 3 0 0 1 2.252.315l2.478 1.445c14.324 8.352 30.981 13.141 48.787 13.141 53.575 0 97.006-43.431 97.006-97.006S273.075 117.75 219.5 117.75m-117.006 97.006c0-64.621 52.385-117.006 117.006-117.006s117.006 52.385 117.006 117.006c0 64.62-52.385 117.006-117.006 117.006-19.952 0-38.763-5.002-55.219-13.826l-48.16 12.286c-2.154.55-4.137-1.352-3.677-3.527l9.882-46.745c-12.522-18.633-19.832-41.073-19.832-65.194" clip-rule="evenodd"/><path fill="#ebe6ef" d="M219.5 117.75c-53.575 0-97.006 43.431-97.006 97.006 0 21.369 6.898 41.098 18.591 57.12l1.84 2.521a3 3 0 0 1 .512 2.389l-5.771 27.299 28.317-7.224a3 3 0 0 1 2.252.315l2.478 1.445c14.324 8.352 30.981 13.141 48.787 13.141v20c-19.952 0-38.763-5.002-55.219-13.826l-48.16 12.286c-2.154.55-4.137-1.352-3.677-3.527l9.882-46.745c-12.522-18.633-19.832-41.073-19.832-65.194 0-64.621 52.385-117.006 117.006-117.006z" opacity=".5" style="mix-blend-mode:multiply"/><path fill="#ebe6ef" d="M180.326 152.926c-1.672-2.341-10.364 5.874-19.343 18.291s-1.098 37.635 17.528 56.261l29.037 29.038c18.626 18.626 43.796 26.41 56.117 17.336 12.322-9.074 20.728-17.575 18.77-19.008s-7.88-5.731-13.229-9.647-11.033-8.024-12.657-9.218c-1.623-1.194-6.161 1.003-10.077 4.919s-8.549 5.636-10.316 3.869l-22.638-22.638-23.306-23.307c-2.149-2.149-.717-7.068 3.2-10.984 3.916-3.917 6.017-8.597 4.68-10.412a1763 1763 0 0 0-8.597-11.796c-3.343-4.633-7.45-10.364-9.169-12.704"/><path fill="#ebe6ef" d="M176.784 153.715a142 142 0 0 0-5.801 7.504c-8.979 12.417-1.098 37.634 17.528 56.26l29.037 29.038c18.626 18.626 43.796 26.41 56.117 17.336a168 168 0 0 0 8.227-6.445c-2.302 3.483-9.218 9.811-18.227 16.445-12.321 9.074-37.491 1.29-56.117-17.336l-29.037-29.038c-18.626-18.626-26.507-43.843-17.528-56.26 6.105-8.444 12.078-14.944 15.801-17.504" opacity=".5" style="mix-blend-mode:multiply"/></svg>